<svg xmlns="http://www.w3.org/2000/svg" viewBox="0 0 512 512">
  <rect width="512" height="512" rx="96" fill="#FFFFFF"/>

  <!-- Monoline mark: house + neuron dot network -->
  <g fill="none" stroke="#0B1220" stroke-width="18" stroke-linejoin="round" stroke-linecap="round">
    <path d="M132 252 L256 152 L380 252 V382 A26 26 0 0 1 354 408 H158 A26 26 0 0 1 132 382 Z"/>
    <path d="M192 296 C220 268, 254 264, 286 284"/>
    <path d="M210 340 C232 316, 278 318, 304 340"/>
    <path d="M250 228 C250 260, 252 290, 260 320"/>
  </g>

  <g fill="#0B1220">
    <circle cx="192" cy="296" r="12"/>
    <circle cx="286" cy="284" r="12"/>
    <circle cx="210" cy="340" r="12"/>
    <circle cx="304" cy="340" r="12"/>
    <circle cx="250" cy="228" r="11"/>
    <circle cx="260" cy="320" r="11"/>
  </g>
</svg>
