<svg xmlns="http://www.w3.org/2000/svg" viewBox="0 0 512 512">
  <defs>
    <linearGradient id="g" x1="0" y1="0" x2="1" y2="1">
      <stop offset="0" stop-color="#03A9F4"/>
      <stop offset="1" stop-color="#7C4DFF"/>
    </linearGradient>
    <filter id="glow" x="-50%" y="-50%" width="200%" height="200%">
      <feGaussianBlur stdDeviation="8" result="b"/>
      <feMerge>
        <feMergeNode in="b"/>
        <feMergeNode in="SourceGraphic"/>
      </feMerge>
    </filter>
  </defs>

  <rect width="512" height="512" rx="96" fill="#070A12"/>

  <!-- Brain silhouette (abstract) -->
  <path d="M170 210 C150 200, 138 218, 144 238
           C124 256, 132 286, 156 296
           C150 324, 174 346, 202 336
           C214 360, 244 372, 268 354
           C292 372, 322 360, 334 336
           C362 346, 386 324, 380 296
           C404 286, 412 256, 392 238
           C398 218, 386 200, 366 210
           C356 186, 330 174, 306 188
           C288 168, 248 168, 230 188
           C206 174, 180 186, 170 210 Z"
        fill="none" stroke="url(#g)" stroke-width="18" stroke-linejoin="round" filter="url(#glow)"/>

  <!-- Synapse web -->
  <g stroke="#B39DFF" stroke-width="5" opacity="0.7" fill="none" stroke-linecap="round">
    <path d="M190 240 C230 220, 282 220, 322 240"/>
    <path d="M180 290 C220 270, 292 270, 332 292"/>
    <path d="M214 332 C246 310, 290 310, 314 332"/>
    <path d="M246 210 C250 250, 250 290, 256 332"/>
    <path d="M298 214 C286 250, 276 286, 268 352"/>
  </g>

  <!-- Nodes -->
  <g filter="url(#glow)">
    <circle cx="190" cy="240" r="11" fill="#03A9F4"/>
    <circle cx="256" cy="226" r="11" fill="#03A9F4"/>
    <circle cx="322" cy="240" r="11" fill="#7C4DFF"/>
    <circle cx="180" cy="290" r="11" fill="#03A9F4"/>
    <circle cx="256" cy="284" r="11" fill="#03A9F4"/>
    <circle cx="332" cy="292" r="11" fill="#7C4DFF"/>
    <circle cx="214" cy="332" r="11" fill="#03A9F4"/>
    <circle cx="314" cy="332" r="11" fill="#7C4DFF"/>
    <circle cx="268" cy="352" r="10" fill="#00E5FF"/>
  </g>

  <!-- Small house marker -->
  <path d="M110 396 L150 366 L190 396 V436 H110 Z" fill="#0D1324" stroke="#1E2A48" stroke-width="8" stroke-linejoin="round"/>
  <path d="M132 436 V412 H168 V436" fill="none" stroke="#1E2A48" stroke-width="8" stroke-linecap="round"/>
</svg>
